<svg xmlns="http://www.w3.org/2000/svg" xmlns:xlink="http://www.w3.org/1999/xlink" width="61.425" height="61.425" viewBox="0 0 61.425 61.425"><defs><linearGradient id="a" x1="0.5" x2="0.5" y2="1" gradientUnits="objectBoundingBox"><stop offset="0" stop-color="#fff"/><stop offset="1" stop-color="#fff" stop-opacity="0.149"/></linearGradient></defs><path d="M59.425,61.425H2a2,2,0,0,1-2-2V2A2,2,0,0,1,2,0H59.425a2,2,0,0,1,2,2V59.425A2,2,0,0,1,59.425,61.425Zm-41.85-44.85a1,1,0,0,0-1,1V45.8a1,1,0,0,0,1,1H45.8a1,1,0,0,0,1-1V17.575a1,1,0,0,0-1-1Z" fill="url(#a)"/></svg>