<svg xmlns="http://www.w3.org/2000/svg" xmlns:xlink="http://www.w3.org/1999/xlink" width="78" height="78" viewBox="0 0 78 78"><defs><linearGradient id="a" x1="0.5" x2="0.5" y2="1" gradientUnits="objectBoundingBox"><stop offset="0" stop-color="#fff"/><stop offset="1" stop-color="#fff" stop-opacity="0.149"/></linearGradient></defs><rect width="78" height="78" rx="20" fill="#3c285b"/><g transform="translate(0 0)" opacity="0.05"><path d="M2596-98.447a2,2,0,0,1-2-2v-36.918h2a19.945,19.945,0,0,1,14.575,6.3v16.988a1,1,0,0,0,1,1H2616v14.625Z" transform="translate(-2538 137.365)" fill="url(#a)"/><path d="M2573.441-34.651a19.06,19.06,0,0,0,2.68-9.768,19.162,19.162,0,0,0-8.049-15.608V-77.559q1.253.421,2.479.939a34.833,34.833,0,0,1,11.108,7.49,34.836,34.836,0,0,1,7.49,11.109,34.722,34.722,0,0,1,2.746,13.6,34.727,34.727,0,0,1-2.746,13.6q-.546,1.292-1.19,2.529A19.945,19.945,0,0,1,2573.441-34.651Z" transform="translate(-2568.072 106.286)" fill="url(#a)"/></g><path d="M11.664,0V-3.312h2.064v-3H11.664v-9.7H6.96L.6-6v2.688H8.256V0ZM8.256-6.312H3.936l4.32-6.672ZM18.288-1.176a2.232,2.232,0,0,0-2.16-2.448A1.916,1.916,0,0,0,14.256-1.7,1.629,1.629,0,0,0,15.888.024a1.8,1.8,0,0,0,.456-.072A4.076,4.076,0,0,1,14.5,2.208l1.32,1.08A5.6,5.6,0,0,0,18.288-1.176ZM25.008.288c4.56,0,6.624-4.152,6.624-8.28s-2.064-8.256-6.624-8.256c-4.584,0-6.624,4.128-6.624,8.256S20.424.288,25.008.288Zm0-3.024c-2.3,0-3.168-2.3-3.168-5.256s.864-5.232,3.168-5.232c2.28,0,3.144,2.28,3.144,5.232S27.288-2.736,25.008-2.736Z" transform="translate(23 47)" fill="#fff"/></svg>