<svg id="Ikon_Jadwal" data-name="Ikon Jadwal" xmlns="http://www.w3.org/2000/svg" xmlns:xlink="http://www.w3.org/1999/xlink" width="78" height="78" viewBox="0 0 78 78">
  <defs>
    <linearGradient id="linear-gradient" x1="0.5" x2="0.5" y2="1" gradientUnits="objectBoundingBox">
      <stop offset="0" stop-color="#fff"/>
      <stop offset="1" stop-color="#fff" stop-opacity="0.149"/>
    </linearGradient>
  </defs>
  <rect id="Rectangle_160" data-name="Rectangle 160" width="78" height="78" rx="20" fill="#3c285b"/>
  <g id="pat" transform="translate(0 0)" opacity="0.05">
    <path id="Intersection_5" data-name="Intersection 5" d="M2538-103.448v-13.918q0-.355.012-.707h5.787a1,1,0,0,0,1-1v-13.318a19.924,19.924,0,0,1,13.2-4.975h1.425v31.918a2,2,0,0,1-2,2Z" transform="translate(-2538 137.365)" fill="url(#linear-gradient)"/>
    <path id="Intersection_6" data-name="Intersection 6" d="M2633.235-32.707a34.814,34.814,0,0,1-7.489-11.109,34.723,34.723,0,0,1-2.747-13.6,34.727,34.727,0,0,1,2.747-13.6,34.814,34.814,0,0,1,7.489-11.109,34.834,34.834,0,0,1,11.109-7.489q.673-.284,1.353-.54a20.094,20.094,0,0,1,.375,3.872v13.824a19.15,19.15,0,0,0-7.3,15.045,19.135,19.135,0,0,0,6.584,14.45,20.052,20.052,0,0,1-9.867,12.33Q2634.323-31.619,2633.235-32.707Z" transform="translate(-2568.072 106.286)" fill="url(#linear-gradient)"/>
  </g>
  <g id="calendar" transform="translate(29.03 27.117)">
    <rect id="Rectangle_172" data-name="Rectangle 172" width="20" height="19.88" rx="2" transform="translate(0 2.342)" stroke-width="2" stroke="#fff" stroke-linecap="round" stroke-linejoin="round" fill="none"/>
    <line id="Line_7" data-name="Line 7" y2="4.684" transform="translate(14.444)" fill="none" stroke="#fff" stroke-linecap="round" stroke-linejoin="round" stroke-width="2"/>
    <line id="Line_8" data-name="Line 8" y2="4.684" transform="translate(5.556)" fill="none" stroke="#fff" stroke-linecap="round" stroke-linejoin="round" stroke-width="2"/>
    <line id="Line_9" data-name="Line 9" x2="20" transform="translate(0 8.889)" fill="none" stroke="#fff" stroke-linecap="round" stroke-linejoin="round" stroke-width="2"/>
  </g>
</svg>
