<svg id="Ikon_KHS" data-name="Ikon KHS" xmlns="http://www.w3.org/2000/svg" xmlns:xlink="http://www.w3.org/1999/xlink" width="78" height="78" viewBox="0 0 78 78">
  <defs>
    <linearGradient id="linear-gradient" x1="0.5" x2="0.5" y2="1" gradientUnits="objectBoundingBox">
      <stop offset="0" stop-color="#fff"/>
      <stop offset="1" stop-color="#fff" stop-opacity="0.149"/>
    </linearGradient>
  </defs>
  <rect id="Rectangle_160" data-name="Rectangle 160" width="78" height="78" rx="20" fill="#3c285b"/>
  <g id="pat" transform="translate(0 0)" opacity="0.05">
    <path id="Intersection_5" data-name="Intersection 5" d="M2538-116.447v-.918a19.928,19.928,0,0,1,5.436-13.707H2565.8a1,1,0,0,0,1-1v-5.293h14.625v18.918a2,2,0,0,1-2,2Z" transform="translate(-2538 137.365)" fill="url(#linear-gradient)"/>
    <path id="Intersection_6" data-name="Intersection 6" d="M2588.072-28.286A20.082,20.082,0,0,1,2584-28.7a34.732,34.732,0,0,1,2.745-13.321,34.837,34.837,0,0,1,7.49-11.108,34.833,34.833,0,0,1,11.108-7.49,34.73,34.73,0,0,1,13.6-2.746,34.731,34.731,0,0,1,13.6,2.746,34.83,34.83,0,0,1,11.108,7.49,35.354,35.354,0,0,1,2.414,2.672v2.171a19.975,19.975,0,0,1-8.3,16.222,19.207,19.207,0,0,0-18.826-15.528,19.2,19.2,0,0,0-19.175,19.174c0,.044,0,.088,0,.132Z" transform="translate(-2568.072 106.286)" fill="url(#linear-gradient)"/>
  </g>
  <g id="file-text" transform="translate(29.251 26.572)">
    <path id="Path_7" data-name="Path 7" d="M16.5,2H6.5A2.5,2.5,0,0,0,4,4.5v20A2.5,2.5,0,0,0,6.5,27h15A2.5,2.5,0,0,0,24,24.5V9.5Z" transform="translate(-4 -2)" fill="none" stroke="#fff" stroke-linecap="round" stroke-linejoin="round" stroke-width="2"/>
    <path id="Path_8" data-name="Path 8" d="M14,2V9.024h7.024" transform="translate(-1.024 -2)" fill="none" stroke="#fff" stroke-linecap="round" stroke-linejoin="round" stroke-width="2"/>
    <line id="Line_10" data-name="Line 10" x1="6.827" transform="translate(6.587 13.75)" fill="none" stroke="#fff" stroke-linecap="round" stroke-linejoin="round" stroke-width="2"/>
    <line id="Line_11" data-name="Line 11" x1="6.827" transform="translate(6.587 18.75)" fill="none" stroke="#fff" stroke-linecap="round" stroke-linejoin="round" stroke-width="2"/>
    <path id="Path_9" data-name="Path 9" d="M10.341,9H8" transform="translate(-2.955 -0.25)" fill="none" stroke="#fff" stroke-linecap="round" stroke-linejoin="round" stroke-width="2"/>
  </g>
</svg>
