<svg xmlns="http://www.w3.org/2000/svg" xmlns:xlink="http://www.w3.org/1999/xlink" width="32" height="32" viewBox="0 0 32 32"><defs><linearGradient id="a" x1="0.75" y1="0.067" x2="0.25" y2="0.933" gradientUnits="objectBoundingBox"><stop offset="0" stop-color="#ffe254"/><stop offset="1" stop-color="#ffb255"/></linearGradient></defs><circle cx="16" cy="16" r="16" fill="url(#a)"/><circle cx="2" cy="2" r="2" transform="translate(7 14)" fill="#212731"/><circle cx="2" cy="2" r="2" transform="translate(21 14)" fill="#212731"/><path d="M21,24c-2.211-2.212-7.789-2.212-10,0" fill="none" stroke="#212731" stroke-miterlimit="10" stroke-width="1.28"/><path d="M25,27a2,2,0,0,1-4,0c0-1.1,2-4,2-4S25,25.9,25,27Z" fill="#2686c6"/><path d="M27,14a5.5,5.5,0,0,0-5-3" fill="none" stroke="#212731" stroke-miterlimit="10" stroke-width="1"/><path d="M5,14a5.5,5.5,0,0,1,5-3" fill="none" stroke="#212731" stroke-miterlimit="10" stroke-width="1"/></svg>